<svg xmlns="http://www.w3.org/2000/svg"  viewBox="0 0 24 24" width="24px" height="24px"><path d="M9.25 8h-7.5C.785 8 0 7.215 0 6.25v-4.5C0 .785.785 0 1.75 0h7.5C10.215 0 11 .785 11 1.75v4.5C11 7.215 10.215 8 9.25 8zM1.75 1.5C1.612 1.5 1.5 1.612 1.5 1.75v4.5c0 .138.112.25.25.25h7.5c.138 0 .25-.112.25-.25v-4.5c0-.138-.112-.25-.25-.25H1.75zM9.25 24h-7.5C.785 24 0 23.215 0 22.25v-10.5C0 10.785.785 10 1.75 10h7.5c.965 0 1.75.785 1.75 1.75v10.5C11 23.215 10.215 24 9.25 24zM1.75 11.5c-.138 0-.25.112-.25.25v10.5c0 .138.112.25.25.25h7.5c.138 0 .25-.112.25-.25v-10.5c0-.138-.112-.25-.25-.25H1.75zM22.25 24h-7.5C13.785 24 13 23.215 13 22.25v-4.5c0-.965.785-1.75 1.75-1.75h7.5c.965 0 1.75.785 1.75 1.75v4.5C24 23.215 23.215 24 22.25 24zM14.75 17.5c-.138 0-.25.112-.25.25v4.5c0 .138.112.25.25.25h7.5c.138 0 .25-.112.25-.25v-4.5c0-.138-.112-.25-.25-.25H14.75zM22.25 14h-7.5C13.785 14 13 13.215 13 12.25V1.75C13 .785 13.785 0 14.75 0h7.5C23.215 0 24 .785 24 1.75v10.5C24 13.215 23.215 14 22.25 14zM14.75 1.5c-.138 0-.25.112-.25.25v10.5c0 .138.112.25.25.25h7.5c.138 0 .25-.112.25-.25V1.75c0-.138-.112-.25-.25-.25H14.75z"/></svg>